<?xml version="1.0" encoding="UTF-8"?>
<svg xmlns="http://www.w3.org/2000/svg" version="1.1" viewBox="0 0 500 200">
  <defs>
    <style>
      .cls-1, .cls-2 {
        fill: #eaeaea;
      }

      .cls-2 {
        fill-rule: evenodd;
      }
    </style>
  </defs>
  <!-- Generator: Adobe Illustrator 28.6.0, SVG Export Plug-In . SVG Version: 1.2.0 Build 709)  -->
  <g>
    <g id="Layer_1">
      <g id="Layer_1-2" data-name="Layer_1">
        <g id="Layer_1-2">
          <g>
            <path class="cls-2" d="M233.4,49.1c-1.5,0-2.8-1.2-2.8-2.8s1.2-2.8,2.8-2.8h46.5c4.2.9,7.8,3.1,10.4,6.3s4.2,7.2,4.2,11.6-1.5,8.4-4.2,11.6-6.3,5.5-10.6,6.3h-12l24.1,24.1c1.1,1.1,1.1,2.8,0,3.9s-2.8,1.1-3.9,0l-28.8-28.8c-.5-.5-.8-1.2-.8-2,0-1.5,1.2-2.8,2.8-2.8h17.9c2.9-.6,5.4-2.2,7.1-4.3,1.8-2.2,2.9-5.1,2.9-8.1s-1.1-5.9-2.9-8.1c-1.8-2.1-4.3-3.7-7.1-4.3h-45.6v.2Z"/>
            <path class="cls-2" d="M210.6,105.5c0,1.5-1.2,2.8-2.8,2.8s-2.8-1.2-2.8-2.8v-59.2c0-1.5,1.2-2.8,2.8-2.8s1.5.3,2,.8l59.2,59.2c1.1,1.1,1.1,2.8,0,3.9s-2.8,1.1-3.9,0l-54.5-54.5v52.6h0Z"/>
          </g>
        </g>
        <g>
          <path class="cls-1" d="M23.4,156.2c-.5,0-.9-.1-1.2-.4-.3-.3-.4-.7-.4-1.2v-20.7c0-.6.1-1,.4-1.3s.7-.5,1.1-.5.7,0,.9.2c.2.1.5.4.8.8l13.8,18.2h-.8v-17.6c0-.5,0-.9.4-1.2.3-.3.7-.4,1.2-.4s.9.1,1.2.4.4.7.4,1.2v20.8c0,.5,0,.9-.4,1.2-.3.3-.6.4-1,.4s-.7,0-1-.2-.5-.4-.8-.8l-13.8-18.2h.8v17.5c0,.5-.1,1-.4,1.2-.3.3-.7.4-1.2.4v.2Z"/>
          <path class="cls-1" d="M55.2,156.2c-.6,0-1-.2-1.3-.5s-.5-.7-.5-1.3v-20.6c0-.6.2-1,.5-1.3s.7-.5,1.3-.5,1,.1,1.3.5.5.7.5,1.3v20.6c0,.6,0,1-.4,1.3-.3.3-.7.5-1.3.5h0Z"/>
          <path class="cls-1" d="M70.9,156.2c-.6,0-1-.2-1.3-.5s-.5-.7-.5-1.3v-20.6c0-.6.2-1,.5-1.3s.7-.4,1.3-.4,1,.1,1.3.4.5.7.5,1.3v9.1h0l10.3-10c.3-.3.7-.5,1-.7.3-.1.6-.2,1-.2s.9.1,1.1.4.3.6.3.9-.2.7-.6,1l-10.7,10.2v-1.7l11.2,10.7c.4.4.6.8.6,1.2s0,.7-.4,1-.6.4-1.1.4-.8,0-1.1-.3c-.3-.2-.6-.4-.9-.8l-10.7-10.2h0v9.5c0,.6,0,1-.4,1.3s-.7.5-1.3.5h-.1Z"/>
          <path class="cls-1" d="M107.7,156.2c-2.2,0-4.2-.5-5.9-1.5-1.7-1-3-2.4-3.9-4.2-.9-1.8-1.4-4-1.4-6.4s.3-3.5.8-5,1.3-2.8,2.2-3.8c1-1.1,2.1-1.9,3.5-2.4,1.4-.6,2.9-.8,4.6-.8s4.2.5,5.9,1.5c1.7,1,2.9,2.4,3.8,4.2.9,1.8,1.4,3.9,1.4,6.4s-.3,3.5-.8,5-1.3,2.8-2.2,3.9c-1,1.1-2.1,1.9-3.5,2.4-1.4.6-2.9.8-4.6.8h0ZM107.7,153.2c1.6,0,2.9-.4,4-1.1s2-1.8,2.5-3.1.9-3,.9-4.9c0-2.9-.6-5.1-1.9-6.7s-3.1-2.4-5.5-2.4-2.9.4-4,1.1-2,1.7-2.5,3.1-.9,3-.9,4.9c0,2.9.7,5.1,2,6.7s3.1,2.4,5.5,2.4h0Z"/>
          <path class="cls-1" d="M131.9,155.9c-.6,0-1-.2-1.3-.5s-.5-.7-.5-1.3v-20.2c0-.6.2-1,.5-1.3s.7-.5,1.3-.5,1,.2,1.3.5.5.7.5,1.3v19h10.4c.5,0,.9.1,1.1.4.3.3.4.6.4,1.1s-.1.8-.4,1.1-.6.4-1.1.4h-12.2Z"/>
          <path class="cls-1" d="M155.2,156.2c-.4,0-.8-.1-1.1-.3-.3-.2-.4-.5-.5-.8,0-.3,0-.7.2-1.1l9.1-20.4c.2-.5.5-.9.9-1.1.3-.2.7-.3,1.2-.3s.8.1,1.1.3c.3.2.6.6.9,1.1l9.1,20.4c.2.4.3.8.2,1.2,0,.3-.2.6-.4.8-.2.2-.6.3-1,.3s-.9-.1-1.2-.4c-.3-.2-.5-.6-.8-1.1l-2.3-5.4,1.6.9h-14.3l1.5-.9-2.3,5.4c-.2.5-.5.9-.7,1.2-.3.2-.6.4-1.1.4v-.2ZM164.9,136.2l-5.1,12-.8-.8h11.8l-.8.8-5.1-12h0Z"/>
          <path class="cls-1" d="M188.5,156.2c-.6,0-1-.2-1.3-.5s-.5-.7-.5-1.3v-20.6c0-.6.2-1,.5-1.3s.7-.5,1.3-.5,1,.1,1.3.5c.3.3.5.7.5,1.3v20.6c0,.6-.1,1-.4,1.3-.3.3-.7.5-1.3.5h-.1Z"/>
          <path class="cls-1" d="M219.7,156.2c-.6,0-1-.2-1.3-.5s-.5-.7-.5-1.3v-20.3c0-.6.2-1,.5-1.3s.7-.5,1.3-.5h8c2.5,0,4.5.6,5.9,1.8,1.4,1.2,2.1,2.9,2.1,5.1s-.3,2.7-.9,3.7c-.6,1-1.5,1.8-2.7,2.3s-2.6.8-4.3.8l.3-.5h.9c.9,0,1.7.2,2.3.7.7.4,1.3,1.2,1.8,2.1l2.9,5.4c.2.4.3.8.3,1.2s-.1.7-.4.9c-.3.2-.6.3-1.1.3s-.9-.1-1.2-.3c-.3-.2-.6-.5-.8-1l-3.5-6.5c-.5-.9-1-1.5-1.6-1.8s-1.4-.5-2.4-.5h-3.8v8.2c0,.6-.1,1-.4,1.3-.3.3-.7.5-1.3.5v.2ZM221.5,143.6h5.7c1.7,0,3-.4,3.9-1.1s1.3-1.8,1.3-3.2-.4-2.4-1.3-3.2c-.9-.7-2.2-1.1-3.9-1.1h-5.7v8.5h0Z"/>
          <path class="cls-1" d="M247.3,156.2c-.4,0-.8-.1-1.1-.3-.3-.2-.4-.5-.5-.8,0-.3,0-.7.2-1.1l9.1-20.4c.2-.5.5-.9.9-1.1.3-.2.7-.3,1.2-.3s.8.1,1.1.3c.3.2.6.6.9,1.1l9.1,20.4c.2.4.3.8.2,1.2,0,.3-.2.6-.4.8s-.6.3-1,.3-.9-.1-1.2-.4c-.3-.2-.5-.6-.8-1.1l-2.3-5.4,1.6.9h-14.3l1.5-.9-2.3,5.4c-.2.5-.5.9-.7,1.2-.3.2-.6.4-1.1.4v-.2ZM257.1,136.2l-5.1,12-.8-.8h11.8l-.8.8-5.1-12h0Z"/>
          <path class="cls-1" d="M279.3,155.9c-.4,0-.8,0-1.1-.3s-.5-.4-.6-.8c-.1-.3-.1-.7,0-1.1s.3-.8.6-1.2l13.4-18.6v1.2h-12.6c-.5,0-.9-.1-1.2-.4-.3-.3-.4-.6-.4-1.1s.1-.8.4-1.1c.3-.2.7-.4,1.2-.4h14.3c.4,0,.8,0,1.1.3.3.2.5.4.6.7s.1.7,0,1.1-.3.8-.6,1.2l-13.5,18.6v-1.2h13.1c.5,0,.9.1,1.2.4.3.2.4.6.4,1.1s-.1.8-.4,1.1c-.3.3-.7.4-1.2.4h-14.8.1Z"/>
          <path class="cls-1" d="M315.8,156.2c-2.2,0-4.2-.5-5.9-1.5-1.7-1-3-2.4-3.9-4.2-.9-1.8-1.4-4-1.4-6.4s.3-3.5.8-5,1.3-2.8,2.2-3.8c1-1.1,2.1-1.9,3.5-2.4,1.4-.6,2.9-.8,4.6-.8s4.2.5,5.9,1.5c1.7,1,2.9,2.4,3.8,4.2.9,1.8,1.4,3.9,1.4,6.4s-.3,3.5-.8,5-1.3,2.8-2.2,3.9c-1,1.1-2.1,1.9-3.5,2.4-1.4.6-2.9.8-4.6.8h.1ZM315.8,153.2c1.6,0,2.9-.4,4-1.1s2-1.8,2.5-3.1.9-3,.9-4.9c0-2.9-.6-5.1-1.9-6.7s-3.1-2.4-5.5-2.4-2.9.4-4,1.1-2,1.7-2.5,3.1c-.6,1.4-.9,3-.9,4.9,0,2.9.7,5.1,2,6.7s3.1,2.4,5.5,2.4h-.1Z"/>
          <path class="cls-1" d="M347.8,156.2c-1.6,0-3-.2-4.2-.6s-2.2-1-3-1.9c-.8-.8-1.4-1.9-1.9-3.1-.4-1.2-.6-2.6-.6-4.3v-12.6c0-.6.2-1,.5-1.3s.7-.4,1.3-.4,1,.1,1.3.4.5.7.5,1.3v12.5c0,2.3.5,4,1.6,5.2,1.1,1.1,2.6,1.7,4.6,1.7s3.6-.6,4.7-1.7,1.6-2.9,1.6-5.2v-12.5c0-.6.2-1,.5-1.3s.7-.4,1.3-.4,1,.1,1.3.4.4.7.4,1.3v12.6c0,2.1-.4,4-1.1,5.4-.7,1.5-1.8,2.6-3.2,3.3-1.4.7-3.2,1.1-5.3,1.1h-.3Z"/>
          <path class="cls-1" d="M378.6,156.2c-.5,0-.9-.1-1.2-.4-.3-.2-.6-.6-.8-1.1l-9-20.4c-.2-.5-.2-.9-.1-1.2,0-.3.3-.6.6-.8.3-.2.6-.3,1-.3s.9.1,1.2.3c.3.2.5.6.7,1l8.5,19.6h-1.2l8.4-19.6c.2-.4.4-.7.7-1,.3-.2.7-.3,1.2-.3s.7,0,1,.3.4.5.5.8c0,.3,0,.7-.2,1.2l-9,20.4c-.2.5-.5.8-.8,1.1-.3.2-.7.4-1.2.4h-.3Z"/>
          <path class="cls-1" d="M399.6,156.2c-.4,0-.8-.1-1.1-.3-.3-.2-.4-.5-.5-.8,0-.3,0-.7.2-1.1l9.1-20.4c.2-.5.5-.9.9-1.1.3-.2.7-.3,1.2-.3s.8.1,1.1.3c.3.2.6.6.9,1.1l9.1,20.4c.2.4.3.8.2,1.2,0,.3-.2.6-.4.8s-.6.3-1,.3-.9-.1-1.2-.4c-.3-.2-.5-.6-.8-1.1l-2.3-5.4,1.6.9h-14.3l1.5-.9-2.3,5.4c-.2.5-.5.9-.7,1.2-.3.2-.6.4-1.1.4v-.2ZM409.3,136.2l-5.1,12-.8-.8h11.8l-.8.8-5.1-12h0Z"/>
          <path class="cls-1" d="M433.1,155.9c-.6,0-1.1-.2-1.4-.5s-.5-.8-.5-1.4v-19.9c0-.6.2-1.1.5-1.4s.8-.5,1.4-.5h12.2c.5,0,.8.1,1.1.4s.4.6.4,1-.1.8-.4,1.1c-.2.2-.6.4-1.1.4h-10.8v7.4h10c.5,0,.9.1,1.1.4s.4.6.4,1-.1.8-.4,1.1-.6.4-1.1.4h-10v7.8h10.8c.5,0,.8.1,1.1.4.2.2.4.6.4,1s-.1.8-.4,1.1c-.2.2-.6.4-1.1.4h-12.2v-.2Z"/>
          <path class="cls-1" d="M466.6,156.2c-.5,0-.9-.1-1.2-.4-.3-.2-.6-.6-.8-1.1l-9-20.4c-.2-.5-.2-.9-.1-1.2,0-.3.3-.6.6-.8.3-.2.6-.3,1-.3s.9.1,1.2.3c.3.2.5.6.7,1l8.5,19.6h-1.2l8.4-19.6c.2-.4.4-.7.7-1,.3-.2.7-.3,1.2-.3s.7,0,1,.3.4.5.5.8c0,.3,0,.7-.2,1.2l-9,20.4c-.2.5-.5.8-.8,1.1-.3.2-.7.4-1.2.4h-.3Z"/>
        </g>
      </g>
    </g>
  </g>
</svg>